<?xml version="1.0" standalone="no"?>
<!DOCTYPE svg PUBLIC "-//W3C//DTD SVG 20010904//EN"
 "http://www.w3.org/TR/2001/REC-SVG-20010904/DTD/svg10.dtd">
<svg version="1.0" xmlns="http://www.w3.org/2000/svg"
 width="32.000000pt" height="32.000000pt" viewBox="0 0 32.000000 32.000000"
 preserveAspectRatio="xMidYMid meet">

<g transform="translate(0.000000,32.000000) scale(0.100000,-0.100000)"
fill="#000000" stroke="none">
<path d="M0 160 l0 -160 160 0 160 0 0 160 0 160 -160 0 -160 0 0 -160z m85
91 c-4 -17 -11 -31 -16 -31 -17 0 -22 30 -10 57 16 35 35 16 26 -26z m118 2
c-12 -35 -39 -38 -35 -4 3 32 22 55 35 42 6 -6 6 -20 0 -38z m73 -115 c5 -46
3 -63 -11 -84 -17 -26 -19 -26 -95 -22 -52 3 -87 11 -105 22 -25 17 -27 22
-21 64 7 55 24 77 32 44 6 -19 13 -22 56 -22 59 0 103 21 111 52 10 36 25 10
33 -54z"/>
</g>
</svg>
